<svg width="13" height="12" viewBox="0 0 13 12" fill="none" xmlns="http://www.w3.org/2000/svg">
<path d="M0 8.1609C0.0535985 7.90989 0.090236 7.65422 0.163849 7.40886C0.333465 6.84059 0.647592 6.35255 1.07468 5.93408C3.06801 3.97858 5.0611 2.02275 7.05397 0.0665815C7.08043 0.0406147 7.10927 0.0173112 7.12758 0L7.8705 0.728736C7.8296 0.752787 7.79099 0.780419 7.75516 0.811296C5.77315 2.75459 3.79193 4.69866 1.81149 6.64351C0.833831 7.60461 0.766323 9.07373 1.64765 10.0994C2.58223 11.1877 4.28992 11.2902 5.35578 10.3218C5.39615 10.2852 5.4355 10.2472 5.47417 10.2093C7.47925 8.24246 9.48422 6.27476 11.4891 4.30616C12.0498 3.7552 12.1265 2.92692 11.6774 2.3167C11.5463 2.13851 11.3775 1.99035 11.1824 1.88248C10.9873 1.77461 10.7707 1.7096 10.5475 1.69193C10.3243 1.67427 10.0999 1.70437 9.8897 1.78017C9.67953 1.85597 9.48863 1.97565 9.33021 2.13094C8.44991 2.98785 7.57571 3.85108 6.6988 4.71164C5.55875 5.83132 4.41837 6.95011 3.27765 8.06802C3.12771 8.21483 3.05851 8.38328 3.11346 8.58669C3.21693 8.9692 3.68676 9.09071 3.98122 8.80774C4.37744 8.42723 4.76654 8.03972 5.15869 7.65488L8.74979 4.13172C8.77659 4.10542 8.8044 4.08045 8.82137 4.06514L9.54732 4.77856C9.54087 4.78522 9.52188 4.80719 9.50118 4.82783C7.90612 6.39316 6.31083 7.95783 4.71531 9.52183C4.16406 10.0618 3.32446 10.1284 2.7074 9.69161C2.53073 9.5672 2.38282 9.40759 2.27333 9.22323C2.16384 9.03886 2.09524 8.83388 2.07202 8.62171C2.04881 8.40953 2.0715 8.19494 2.13861 7.99196C2.20572 7.78899 2.31573 7.6022 2.46146 7.44382C2.4981 7.40354 2.53609 7.36425 2.57476 7.32597C4.56492 5.37291 6.55508 3.41985 8.54523 1.46679C9.1053 0.916495 9.77393 0.647505 10.5681 0.681129C11.7245 0.730399 12.7442 1.59463 12.9508 2.71187C13.1154 3.60106 12.8752 4.3764 12.2259 5.01625C10.2156 6.99639 8.2017 8.97286 6.18418 10.9457C4.21257 12.8695 0.902354 12.0423 0.145869 9.4406C0.0810758 9.21821 0.049528 8.98651 0.00237487 8.7588L0 8.1609Z" fill="#4780BB"/>
</svg>
