<?xml version="1.0" encoding="utf-8"?>
<!-- Generator: Adobe Illustrator 25.0.1, SVG Export Plug-In . SVG Version: 6.00 Build 0)  -->
<svg version="1.1" id="Layer_1" xmlns="http://www.w3.org/2000/svg" xmlns:xlink="http://www.w3.org/1999/xlink" x="0px" y="0px"
	 viewBox="0 0 18 18" style="enable-background:new 0 0 18 18;" xml:space="preserve">
<style type="text/css">
	.st0{fill:#E24D4B;}
</style>
<path class="st0" d="M15.6,15.8c-0.5,0.5-1.5,0.5-2,0L9,11.2l-4.6,4.6c-0.5,0.5-1.5,0.5-2,0c-0.5-0.5-0.5-1.5,0-2L7,9.2L2.4,4.5
	c-0.5-0.5-0.5-1.5,0-2s1.5-0.5,2,0L9,7.2l4.6-4.6c0.5-0.5,1.5-0.5,2,0c0.5,0.5,0.5,1.5,0,2L11,9.2l4.6,4.6
	C16.2,14.4,16.2,15.3,15.6,15.8z"/>
</svg>
