<?xml version="1.0" encoding="utf-8"?>
<!-- Generator: Adobe Illustrator 26.0.2, SVG Export Plug-In . SVG Version: 6.00 Build 0)  -->
<svg version="1.1" id="Layer_1" xmlns="http://www.w3.org/2000/svg" xmlns:xlink="http://www.w3.org/1999/xlink" x="0px" y="0px"
	 viewBox="0 0 150 150" style="enable-background:new 0 0 150 150;" xml:space="preserve">
<style type="text/css">
	.st0{fill:#F7F7F7;}
	.st1{fill:#00BBED;}
	.st2{opacity:0.41;}
	.st3{fill:#C5D9FF;}
	.st4{opacity:0.31;}
	.st5{fill:url(#SVGID_1_);}
	.st6{fill:url(#SVGID_00000167376001182307578410000008885703264988012972_);}
	.st7{fill:url(#SVGID_00000156557324224312910990000011550334316243498646_);}
	.st8{opacity:0.2;enable-background:new    ;}
	.st9{fill:url(#SVGID_00000055695572878842715590000003927751409730866353_);}
	.st10{fill:url(#SVGID_00000137131593415258870130000005213460961818796720_);}
	.st11{fill:url(#SVGID_00000103986132891664914230000015605537392679854258_);}
	.st12{fill:url(#SVGID_00000034804696871820958450000010082284740371132331_);}
	.st13{fill:url(#SVGID_00000000192042657276752000000012243086078615105679_);}
	.st14{fill:url(#SVGID_00000049936921344454179470000000988582566639126153_);}
	.st15{fill:url(#SVGID_00000021105436540156769100000003221463973014222488_);}
	.st16{fill:url(#SVGID_00000158718656729724821230000000228510148239192736_);}
	.st17{fill:url(#SVGID_00000016071154021817834300000013070790475689140412_);}
	.st18{fill:url(#SVGID_00000034796674858320122320000008580800656602763185_);}
	.st19{fill:url(#SVGID_00000151505125516360867480000012994818830779647128_);}
	.st20{fill:url(#SVGID_00000126283698407436586740000006965599734724342438_);}
	.st21{fill:url(#SVGID_00000003079145808515282890000012904198420790031541_);}
</style>
<g>
	<rect class="st0" width="150" height="150"/>
	<rect x="10" y="10" class="st1" width="130" height="130"/>
	<g>
		<g>
			<g class="st2">
				<g>
					<g>
						<path class="st3" d="M111.3,83c0.1-1.1,0-2.3-0.1-3.4c-0.6-5.3-3.5-10.3-7.7-13.8c-1.5-1.3-3.2-2.4-4.2-4
							c-1.6-2.8-1.5-6-3.6-8.8s-5-4.9-8.3-6c-10-3.3-24,2.1-22.7,13.6c0,0,0,0.1,0,0.2c0.2,2.4-1.8,4.4-4.3,4.4
							c-9.2,0.2-17.1,7-18.8,15.6c-1.1,5.5,0.7,11.6,4.9,15.5c3.2,2.9,7.4,4.5,11.6,5.6c8.5,2.2,17.4,2.7,26.2,1.8
							c8.2-0.8,16.9-3.1,22.2-9.1C109.4,91.4,111.1,87.2,111.3,83z"/>
					</g>
				</g>
			</g>
			<g class="st4">
				<g>
					<g>
						<path class="st3" d="M103.8,83.6c0.1-0.9,0-1.8-0.1-2.7c-0.5-4.2-2.7-8.1-6-10.8c-1.2-1-2.5-1.9-3.3-3.2
							c-1.3-2.2-1.2-4.7-2.8-6.9c-1.6-2.2-3.9-3.9-6.5-4.7c-7.8-2.6-18.8,1.6-17.8,10.6c0,0,0,0.1,0,0.1c0.1,1.9-1.4,3.4-3.4,3.5
							c-7.2,0.2-13.4,5.5-14.8,12.2c-0.8,4.3,0.5,9.1,3.9,12.2c2.5,2.3,5.8,3.6,9.1,4.4c6.7,1.7,13.7,2.1,20.5,1.4
							c6.4-0.6,13.2-2.4,17.4-7.1C102.3,90.1,103.6,86.9,103.8,83.6z"/>
					</g>
				</g>
			</g>
			<g class="st4">
				<ellipse class="st3" cx="107.1" cy="54.5" rx="2.2" ry="2.2"/>
			</g>
			<g class="st4">
				<ellipse class="st3" cx="57.6" cy="52" rx="2.6" ry="2.5"/>
			</g>
			<g class="st4">
				<ellipse class="st3" cx="42" cy="100" rx="3.4" ry="3.2"/>
			</g>
		</g>
	</g>
	<g>
		<g>
			
				<linearGradient id="SVGID_1_" gradientUnits="userSpaceOnUse" x1="718.3708" y1="-64.0567" x2="729.7077" y2="-36.5732" gradientTransform="matrix(1.0456 6.410000e-02 0.1059 -0.9499 -667.7051 -15.3978)">
				<stop  offset="0" style="stop-color:#B998D6"/>
				<stop  offset="9.860000e-02" style="stop-color:#C0A1DA"/>
				<stop  offset="0.2323" style="stop-color:#D1B4E3"/>
				<stop  offset="0.7321" style="stop-color:#F1E8F6"/>
				<stop  offset="1" style="stop-color:#FFFFFF"/>
			</linearGradient>
			<path class="st5" d="M65.3,74.5L65.3,74.5l35.2,15.3l0,0c0.3-0.1,0.5-0.3,0.6-0.6l9.4-21.8c0.2-0.5-0.1-1-0.7-1.2L75.7,54.8
				c-0.4-0.2-1,0.1-1.2,0.5l-9.1,18.5C65.2,74.1,65.2,74.3,65.3,74.5z"/>
			
				<radialGradient id="SVGID_00000018952246635850550580000014868197258673622170_" cx="578.6388" cy="-53.1934" r="18.4365" gradientTransform="matrix(1.0932 6.410000e-02 0.1107 -0.9499 -538.9601 -15.3978)" gradientUnits="userSpaceOnUse">
				<stop  offset="0" style="stop-color:#FFFFFF"/>
				<stop  offset="6.560000e-02" style="stop-color:#D8D8D8"/>
				<stop  offset="0.1615" style="stop-color:#A6A6A6"/>
				<stop  offset="0.2622" style="stop-color:#797979"/>
				<stop  offset="0.3658" style="stop-color:#545454"/>
				<stop  offset="0.4731" style="stop-color:#353535"/>
				<stop  offset="0.5852" style="stop-color:#1E1E1E"/>
				<stop  offset="0.7042" style="stop-color:#0D0D0D"/>
				<stop  offset="0.835" style="stop-color:#030303"/>
				<stop  offset="1" style="stop-color:#000000"/>
			</radialGradient>
			<path style="fill:url(#SVGID_00000018952246635850550580000014868197258673622170_);" d="M86.6,67.9c1.1-0.3,2.2,0.1,2.8,1
				L101.2,89l8.9-20.6c0.2-0.5-0.1-1-0.7-1.2L75.3,55.6c-0.4-0.2-1,0.1-1.2,0.5l-8.6,17.5L86.6,67.9z"/>
			
				<linearGradient id="SVGID_00000012460508703460457400000009434454591874175875_" gradientUnits="userSpaceOnUse" x1="721.796" y1="-57.6252" x2="731.4498" y2="-30.6121" gradientTransform="matrix(1.0456 6.410000e-02 0.1059 -0.9499 -667.7051 -15.3978)">
				<stop  offset="0" style="stop-color:#B998D6"/>
				<stop  offset="9.860000e-02" style="stop-color:#C0A1DA"/>
				<stop  offset="0.2323" style="stop-color:#D1B4E3"/>
				<stop  offset="0.7321" style="stop-color:#F1E8F6"/>
				<stop  offset="1" style="stop-color:#FFFFFF"/>
			</linearGradient>
			<path style="fill:url(#SVGID_00000012460508703460457400000009434454591874175875_);" d="M86.9,67c1.1-0.3,2.2,0.1,2.8,1
				L101.2,89l9.3-21.4c0.2-0.5-0.1-1-0.7-1.2L75.7,54.8c-0.4-0.2-1,0.1-1.2,0.5l-9,18.3L86.9,67z"/>
			<path class="st8" d="M66.3,73.2l21.3-6.7c1.1-0.3,2.2,0.1,2.8,1l10.7,20.4l0.2,1.1L89.7,68.1c-0.5-0.9-1.7-1.3-2.8-1l-21.4,6.5
				L66.3,73.2z"/>
			<path class="st8" d="M110.3,66.6L110.3,66.6L87.1,74c-1.1,0.3-2.2-0.2-2.7-1.1l-9.1-18.1l0,0L110.3,66.6z"/>
			
				<linearGradient id="SVGID_00000072238857461710869750000005340056503342655918_" gradientUnits="userSpaceOnUse" x1="744.5051" y1="-10.5642" x2="721.5763" y2="-43.7714" gradientTransform="matrix(1.0456 6.410000e-02 0.1059 -0.9499 -667.7051 -15.3978)">
				<stop  offset="0" style="stop-color:#B998D6"/>
				<stop  offset="9.860000e-02" style="stop-color:#C0A1DA"/>
				<stop  offset="0.2323" style="stop-color:#D1B4E3"/>
				<stop  offset="0.7321" style="stop-color:#F1E8F6"/>
				<stop  offset="1" style="stop-color:#FFFFFF"/>
			</linearGradient>
			<path style="fill:url(#SVGID_00000072238857461710869750000005340056503342655918_);" d="M110.3,66.6L110.3,66.6l-22.9,6.8
				c-1.1,0.3-2.2-0.2-2.7-1.1l-9.4-17.5l0,0L110.3,66.6z"/>
			
				<radialGradient id="SVGID_00000082364310836909608940000009184150215270364604_" cx="568.3452" cy="7967.9878" r="8.995" gradientTransform="matrix(1.0932 6.410000e-02 -0.1107 0.9499 349.3967 -7539.6133)" gradientUnits="userSpaceOnUse">
				<stop  offset="0" style="stop-color:#FFFFFF"/>
				<stop  offset="6.560000e-02" style="stop-color:#D8D8D8"/>
				<stop  offset="0.1615" style="stop-color:#A6A6A6"/>
				<stop  offset="0.2622" style="stop-color:#797979"/>
				<stop  offset="0.3658" style="stop-color:#545454"/>
				<stop  offset="0.4731" style="stop-color:#353535"/>
				<stop  offset="0.5852" style="stop-color:#1E1E1E"/>
				<stop  offset="0.7042" style="stop-color:#0D0D0D"/>
				<stop  offset="0.835" style="stop-color:#030303"/>
				<stop  offset="1" style="stop-color:#000000"/>
			</radialGradient>
			<path style="fill:url(#SVGID_00000082364310836909608940000009184150215270364604_);" d="M85.1,72c0.5,0.9,1.7,1.4,2.7,1.1
				l22.2-6.5l0.3,0.1l0,0l-22.9,6.8c-1.1,0.3-2.2-0.2-2.7-1.1l-9.4-17.5l0,0l0.6,0.2L85.1,72z"/>
			<g>
				
					<linearGradient id="SVGID_00000089536959147415949030000003288031110273645717_" gradientUnits="userSpaceOnUse" x1="75.7586" y1="80.7718" x2="64.99" y2="68.4114" gradientTransform="matrix(1 0 0 -1 0 152)">
					<stop  offset="0" style="stop-color:#FFFFFF"/>
					<stop  offset="1" style="stop-color:#7A5608"/>
				</linearGradient>
				<path style="fill:url(#SVGID_00000089536959147415949030000003288031110273645717_);" d="M80.2,75.7c0.3-0.5,0.1-1-0.4-1.2
					l-12.3-4.8l-2.1,4.2c-0.1,0.2-0.1,0.5,0,0.7L77.8,80L80.2,75.7z"/>
				
					<linearGradient id="SVGID_00000034774925638708040680000005810548702765240967_" gradientUnits="userSpaceOnUse" x1="71.7625" y1="84.8434" x2="60.4812" y2="71.8944" gradientTransform="matrix(1 0 0 -1 0 152)">
					<stop  offset="0" style="stop-color:#FFFFFF"/>
					<stop  offset="1" style="stop-color:#7A5608"/>
				</linearGradient>
				<polygon style="fill:url(#SVGID_00000034774925638708040680000005810548702765240967_);" points="65.3,74.5 65.3,74.5 
					65.3,74.5 				"/>
			</g>
		</g>
		<g>
			
				<linearGradient id="SVGID_00000005965909126341718530000008283876747067076235_" gradientUnits="userSpaceOnUse" x1="93.8792" y1="62.9147" x2="106.3992" y2="62.9147" gradientTransform="matrix(1 0 0 -1 0 152)">
				<stop  offset="3.540000e-02" style="stop-color:#138BBD"/>
				<stop  offset="0.2257" style="stop-color:#169AC7"/>
				<stop  offset="0.5946" style="stop-color:#1FC3DF"/>
				<stop  offset="1" style="stop-color:#2AF6FF"/>
			</linearGradient>
			<path style="fill:url(#SVGID_00000005965909126341718530000008283876747067076235_);" d="M100.5,93.1c-0.5,0-0.9-0.1-1.4-0.3
				l-5-2.2c-0.2-0.1-0.3-0.3-0.2-0.5c0.1-0.2,0.3-0.3,0.5-0.2l5,2.2c0.7,0.3,1.6,0.3,2.2-0.1c0.9-0.4,1.5-1,1.9-1.9l2.1-4.9
				c0.1-0.2,0.3-0.3,0.5-0.2c0.2,0.1,0.3,0.3,0.2,0.5l-2.1,4.9c-0.4,1-1.2,1.8-2.2,2.2C101.5,93,101,93.1,100.5,93.1z"/>
		</g>
		<g>
			
				<linearGradient id="SVGID_00000180359117242217593440000006976375538650712720_" gradientUnits="userSpaceOnUse" x1="106.1877" y1="84.6862" x2="113.9475" y2="84.6862" gradientTransform="matrix(1 0 0 -1 0 152)">
				<stop  offset="3.540000e-02" style="stop-color:#138BBD"/>
				<stop  offset="0.2257" style="stop-color:#169AC7"/>
				<stop  offset="0.5946" style="stop-color:#1FC3DF"/>
				<stop  offset="1" style="stop-color:#2AF6FF"/>
			</linearGradient>
			<path style="fill:url(#SVGID_00000180359117242217593440000006976375538650712720_);" d="M111.6,72.8c-0.1,0-0.1,0-0.1,0
				c-0.2-0.1-0.3-0.3-0.2-0.5l1.2-2.8c0.3-0.7,0.5-1.1,0.5-1.1c0.3-0.8,0.3-1.8-0.1-2.6c-0.4-0.9-1.2-1.5-2.2-1.9l-4.2-1.4
				c-0.2-0.1-0.3-0.3-0.2-0.5s0.3-0.3,0.5-0.2l4.2,1.4c1.2,0.4,2.1,1.2,2.6,2.2c0.5,1,0.5,2.1,0.1,3.2l-1.7,3.9
				C111.9,72.7,111.8,72.8,111.6,72.8z"/>
		</g>
		<g>
			
				<linearGradient id="SVGID_00000121959972390020635160000005341973722008236693_" gradientUnits="userSpaceOnUse" x1="69.9131" y1="97.48" x2="81.6312" y2="97.48" gradientTransform="matrix(1 0 0 -1 0 152)">
				<stop  offset="3.540000e-02" style="stop-color:#138BBD"/>
				<stop  offset="0.2257" style="stop-color:#169AC7"/>
				<stop  offset="0.5946" style="stop-color:#1FC3DF"/>
				<stop  offset="1" style="stop-color:#2AF6FF"/>
			</linearGradient>
			<path style="fill:url(#SVGID_00000121959972390020635160000005341973722008236693_);" d="M70.3,57.5c-0.1,0-0.1,0-0.2,0
				c-0.2-0.1-0.3-0.3-0.2-0.5l1.5-3c0.7-1.4,2.2-2.4,3.9-2.4c0.5,0,1,0.1,1.4,0.2l4.6,1.5c0.2,0.1,0.3,0.3,0.2,0.5s-0.3,0.3-0.5,0.2
				l-4.6-1.5c-0.4-0.1-0.8-0.2-1.2-0.2c-1.4,0-2.7,0.8-3.2,2l-1.5,3C70.6,57.4,70.4,57.5,70.3,57.5z"/>
		</g>
		<g>
			
				<linearGradient id="SVGID_00000132773595869082065210000004373605794672673186_" gradientUnits="userSpaceOnUse" x1="61.9093" y1="78.0864" x2="69.5848" y2="78.0864" gradientTransform="matrix(1 0 0 -1 0 152)">
				<stop  offset="3.540000e-02" style="stop-color:#138BBD"/>
				<stop  offset="0.2257" style="stop-color:#169AC7"/>
				<stop  offset="0.5946" style="stop-color:#1FC3DF"/>
				<stop  offset="1" style="stop-color:#2AF6FF"/>
			</linearGradient>
			<path style="fill:url(#SVGID_00000132773595869082065210000004373605794672673186_);" d="M69.2,79.7c-0.1,0-0.1,0-0.2,0l-5.1-2.2
				c-1-0.4-1.8-1.3-1.9-2.4c-0.2-0.9-0.1-1.8,0.3-2.6l2-4.2c0.1-0.2,0.3-0.2,0.5-0.2s0.3,0.3,0.2,0.5l-2,4.2
				c-0.3,0.7-0.4,1.4-0.3,2.2c0.1,0.8,0.7,1.6,1.5,1.9l5.1,2.2c0.2,0.1,0.3,0.3,0.2,0.5C69.5,79.7,69.3,79.7,69.2,79.7z"/>
		</g>
		<g>
			
				<linearGradient id="SVGID_00000132050252462753950980000017386637428090755978_" gradientUnits="userSpaceOnUse" x1="1992.8358" y1="-195.0927" x2="2002.8853" y2="-170.7305" gradientTransform="matrix(1.0262 -1.270000e-02 0.2631 -0.9777 -1951.1862 -65.1547)">
				<stop  offset="3.540000e-02" style="stop-color:#FFA98C"/>
				<stop  offset="0.3169" style="stop-color:#FFB892"/>
				<stop  offset="0.8601" style="stop-color:#FEE1A3"/>
				<stop  offset="1" style="stop-color:#FEECA8"/>
			</linearGradient>
			<path style="fill:url(#SVGID_00000132050252462753950980000017386637428090755978_);" d="M36.1,83.4L36.1,83.4l29,15l0,0
				c0.3-0.1,0.5-0.2,0.6-0.5l11.6-20.8c0.3-0.5,0.1-1-0.4-1.2L46.9,64.2c-0.4-0.2-0.9,0.1-1.1,0.5l-9.7,18
				C36,82.9,36,83.2,36.1,83.4z"/>
			
				<radialGradient id="SVGID_00000029740133852155547950000007358713969286839711_" cx="1849.7887" cy="-173.8062" r="17.6569" gradientTransform="matrix(1.073 -1.270000e-02 0.2751 -0.9777 -1880.7284 -65.1547)" gradientUnits="userSpaceOnUse">
				<stop  offset="0" style="stop-color:#FFFFFF"/>
				<stop  offset="6.560000e-02" style="stop-color:#D8D8D8"/>
				<stop  offset="0.1615" style="stop-color:#A6A6A6"/>
				<stop  offset="0.2622" style="stop-color:#797979"/>
				<stop  offset="0.3658" style="stop-color:#545454"/>
				<stop  offset="0.4731" style="stop-color:#353535"/>
				<stop  offset="0.5852" style="stop-color:#1E1E1E"/>
				<stop  offset="0.7042" style="stop-color:#0D0D0D"/>
				<stop  offset="0.835" style="stop-color:#030303"/>
				<stop  offset="1" style="stop-color:#000000"/>
			</radialGradient>
			<path style="fill:url(#SVGID_00000029740133852155547950000007358713969286839711_);" d="M55.2,77.3c1-0.3,2,0.1,2.3,1l8.3,19.3
				l11-19.6c0.3-0.5,0.1-1-0.4-1.2L46.5,65c-0.4-0.2-0.9,0.1-1.1,0.5l-9.1,17L55.2,77.3z"/>
			
				<linearGradient id="SVGID_00000179625411290083895390000001343703369915605396_" gradientUnits="userSpaceOnUse" x1="1995.5886" y1="-190.3322" x2="2004.6992" y2="-164.839" gradientTransform="matrix(1.0262 -1.270000e-02 0.2631 -0.9777 -1951.1862 -65.1547)">
				<stop  offset="3.540000e-02" style="stop-color:#FFA98C"/>
				<stop  offset="0.3169" style="stop-color:#FFB892"/>
				<stop  offset="0.8601" style="stop-color:#FEE1A3"/>
				<stop  offset="1" style="stop-color:#FEECA8"/>
			</linearGradient>
			<path style="fill:url(#SVGID_00000179625411290083895390000001343703369915605396_);" d="M55.7,76.5c1-0.3,2,0.1,2.4,1l7.8,20.2
				l11.4-20.5c0.3-0.5,0.1-1-0.4-1.2L46.9,64.2c-0.4-0.2-0.9,0.1-1.1,0.5l-9.5,17.8L55.7,76.5z"/>
			<path class="st8" d="M37,82.1L56.3,76c1-0.3,2,0.1,2.4,1l7.2,19.7l0,0.9L58,77.5c-0.3-0.9-1.4-1.3-2.4-1l-19.3,6L37,82.1z"/>
			<path class="st8" d="M77.3,76.2L77.3,76.2l-22.4,7c-1,0.3-1.9-0.2-2.2-1.1l-6-17.9l0,0L77.3,76.2z"/>
			
				<linearGradient id="SVGID_00000020384990392316285550000017006952865024482700_" gradientUnits="userSpaceOnUse" x1="2015.601" y1="-147.5914" x2="1995.8639" y2="-176.1761" gradientTransform="matrix(1.0262 -1.270000e-02 0.2631 -0.9777 -1951.1862 -65.1547)">
				<stop  offset="3.540000e-02" style="stop-color:#FFA98C"/>
				<stop  offset="0.3169" style="stop-color:#FFB892"/>
				<stop  offset="0.8601" style="stop-color:#FEE1A3"/>
				<stop  offset="1" style="stop-color:#FEECA8"/>
			</linearGradient>
			<path style="fill:url(#SVGID_00000020384990392316285550000017006952865024482700_);" d="M77.3,76.2L77.3,76.2l-22,6.4
				c-1,0.3-1.9-0.2-2.2-1.1l-6.4-17.3l0,0L77.3,76.2z"/>
			
				<radialGradient id="SVGID_00000054952194229492518640000007431194438719273632_" cx="1838.0719" cy="8088.3618" r="8.7556" gradientTransform="matrix(1.073 -1.270000e-02 -0.2751 0.9777 310.3701 -7810.2485)" gradientUnits="userSpaceOnUse">
				<stop  offset="0" style="stop-color:#FFFFFF"/>
				<stop  offset="6.560000e-02" style="stop-color:#D8D8D8"/>
				<stop  offset="0.1615" style="stop-color:#A6A6A6"/>
				<stop  offset="0.2622" style="stop-color:#797979"/>
				<stop  offset="0.3658" style="stop-color:#545454"/>
				<stop  offset="0.4731" style="stop-color:#353535"/>
				<stop  offset="0.5852" style="stop-color:#1E1E1E"/>
				<stop  offset="0.7042" style="stop-color:#0D0D0D"/>
				<stop  offset="0.835" style="stop-color:#030303"/>
				<stop  offset="1" style="stop-color:#000000"/>
			</radialGradient>
			<path style="fill:url(#SVGID_00000054952194229492518640000007431194438719273632_);" d="M53.4,81.2c0.3,0.9,1.3,1.3,2.3,1.1
				L77,76.1l0.3,0.1l0,0l-22,6.4c-1,0.3-1.9-0.2-2.2-1.1l-6.4-17.3l0,0l0.5,0.2L53.4,81.2z"/>
		</g>
	</g>
</g>
</svg>
