<svg width="10" height="12" viewBox="0 0 10 12" fill="none" xmlns="http://www.w3.org/2000/svg">
<path d="M6.53725 0C6.71239 0.174262 6.8963 0.34852 7.06269 0.527033C7.10605 0.573811 7.15958 0.610656 7.2194 0.634912C7.27922 0.659168 7.34383 0.670223 7.40859 0.667287C8.08727 0.667287 8.77035 0.667287 9.44903 0.667287H9.60227V2.00189H0V0.675796H2.27688C2.31456 0.677996 2.35226 0.671871 2.38715 0.657883C2.42203 0.643895 2.45318 0.622408 2.47828 0.595039C2.64904 0.425027 2.82419 0.259265 2.99933 0.0892527L3.06064 0.00849593L6.53725 0Z" fill="#9E9E9E"/>
<path d="M0.674324 2.67346H8.94551V10.6045C8.96166 10.9155 8.86422 11.222 8.67038 11.47C8.47653 11.718 8.19873 11.8917 7.8859 11.9604C7.75949 11.988 7.63013 12.0009 7.50058 11.9986H2.11926C1.92719 12.0071 1.73542 11.9766 1.55616 11.9091C1.37691 11.8416 1.21412 11.7386 1.07816 11.6066C0.94221 11.4747 0.836082 11.3166 0.766551 11.1426C0.69702 10.9686 0.665608 10.7825 0.674324 10.596V2.67346Z" fill="#9E9E9E"/>
</svg>
