<?xml version="1.0" encoding="utf-8"?>
<!-- Generator: Adobe Illustrator 25.0.1, SVG Export Plug-In . SVG Version: 6.00 Build 0)  -->
<svg version="1.1" id="Layer_1" xmlns="http://www.w3.org/2000/svg" xmlns:xlink="http://www.w3.org/1999/xlink" x="0px" y="0px"
	 viewBox="0 0 30 30" style="enable-background:new 0 0 30 30;" xml:space="preserve">
<style type="text/css">
	.st0{fill:#949595;}
</style>
<g>
	<g>
		<g>
			<path class="st0" d="M11.3,3.1H5.8c-1.5,0-2.8,1.2-2.8,2.8v5.5c0,1.5,1.2,2.8,2.8,2.8h5.5c1.5,0,2.8-1.2,2.8-2.8V5.8
				C14.1,4.3,12.8,3.1,11.3,3.1z M12.2,11.3c0,0.5-0.4,0.9-0.9,0.9H5.8c-0.5,0-0.9-0.4-0.9-0.9V5.8c0-0.5,0.4-0.9,0.9-0.9h5.5
				c0.5,0,0.9,0.4,0.9,0.9V11.3z"/>
		</g>
	</g>
	<g>
		<g>
			<path class="st0" d="M24.1,3.1h-5.4c-1.5,0-2.8,1.3-2.8,2.8v5.4c0,1.5,1.3,2.8,2.8,2.8h5.4c1.5,0,2.8-1.3,2.8-2.8V5.9
				C26.9,4.3,25.7,3.1,24.1,3.1z M25.1,11.3c0,0.5-0.4,0.9-0.9,0.9h-5.4c-0.5,0-0.9-0.4-0.9-0.9V5.9c0-0.5,0.4-0.9,0.9-0.9h5.4
				c0.5,0,0.9,0.4,0.9,0.9V11.3z"/>
		</g>
	</g>
	<g>
		<g>
			<path class="st0" d="M11.3,15.9H5.8c-1.5,0-2.8,1.2-2.8,2.8v5.5c0,1.5,1.2,2.8,2.8,2.8h5.5c1.5,0,2.8-1.2,2.8-2.8v-5.5
				C14.1,17.2,12.8,15.9,11.3,15.9z M12.2,24.2c0,0.5-0.4,0.9-0.9,0.9H5.8c-0.5,0-0.9-0.4-0.9-0.9v-5.5c0-0.5,0.4-0.9,0.9-0.9h5.5
				c0.5,0,0.9,0.4,0.9,0.9V24.2z"/>
		</g>
	</g>
	<g>
		<g>
			<path class="st0" d="M24.1,15.9h-5.4c-1.5,0-2.8,1.3-2.8,2.8v5.4c0,1.5,1.3,2.8,2.8,2.8h5.4c1.5,0,2.8-1.3,2.8-2.8v-5.4
				C26.9,17.2,25.7,15.9,24.1,15.9z M25.1,24.1c0,0.5-0.4,0.9-0.9,0.9h-5.4c-0.5,0-0.9-0.4-0.9-0.9v-5.4c0-0.5,0.4-0.9,0.9-0.9h5.4
				c0.5,0,0.9,0.4,0.9,0.9V24.1z"/>
		</g>
	</g>
</g>
</svg>
