<?xml version="1.0" encoding="utf-8"?>
<!-- Generator: Adobe Illustrator 25.0.1, SVG Export Plug-In . SVG Version: 6.00 Build 0)  -->
<svg version="1.1" id="Layer_1" xmlns="http://www.w3.org/2000/svg" xmlns:xlink="http://www.w3.org/1999/xlink" x="0px" y="0px"
	 viewBox="0 0 14 14" style="enable-background:new 0 0 14 14;" xml:space="preserve">
<style type="text/css">
	.st0{fill:#949595;}
</style>
<g>
	<g>
		<g>
			<path class="st0" d="M6.3,0.8c-3,0-5.4,2.4-5.4,5.4c0,3,2.4,5.4,5.4,5.4c3,0,5.4-2.4,5.4-5.4C11.7,3.3,9.3,0.8,6.3,0.8z
				 M6.3,10.7c-2.4,0-4.4-2-4.4-4.4s2-4.4,4.4-4.4s4.4,2,4.4,4.4S8.7,10.7,6.3,10.7z"/>
		</g>
	</g>
	<g>
		<g>
			<path class="st0" d="M13,12.3l-2.9-2.9c-0.2-0.2-0.5-0.2-0.7,0c-0.2,0.2-0.2,0.5,0,0.7l2.9,2.9c0.1,0.1,0.2,0.1,0.4,0.1
				c0.1,0,0.3,0,0.4-0.1C13.2,12.8,13.2,12.5,13,12.3z"/>
		</g>
	</g>
</g>
</svg>
