<?xml version="1.0" encoding="utf-8"?>
<!-- Generator: Adobe Illustrator 24.2.1, SVG Export Plug-In . SVG Version: 6.00 Build 0)  -->
<svg version="1.1" id="Layer_1" xmlns="http://www.w3.org/2000/svg" xmlns:xlink="http://www.w3.org/1999/xlink" x="0px" y="0px"
	 viewBox="0 0 13 13" style="enable-background:new 0 0 13 13;" xml:space="preserve">
<style type="text/css">
	.st0{fill:#3C4349;}
</style>
<path class="st0" d="M10.7,3.4c-0.1-0.5-0.5-0.9-1-0.9H8.6V2.3c0-0.3-0.1-0.5-0.3-0.8C8.1,1.4,7.9,1.3,7.6,1.3H5.5
	c-0.3,0-0.5,0.1-0.8,0.3C4.6,1.8,4.5,2.1,4.5,2.3v0.2H3.3c-0.5,0-0.9,0.4-1,0.9c0,0.5,0.3,0.9,0.7,1.1v5.8c0,0.3,0.2,0.8,0.3,1
	c0.3,0.3,0.6,0.4,0.9,0.4h4.5c0.3,0,0.7-0.2,0.9-0.4c0.2-0.2,0.3-0.5,0.3-1V4.5C10.6,4.3,10.8,3.9,10.7,3.4z M8.8,10.9H4.3
	c-0.4,0-0.6-0.3-0.6-0.7V4.5h5.7v5.8C9.4,10.7,9.1,10.9,8.8,10.9z M5.1,2.5V2.3c0-0.1,0.1-0.2,0.1-0.3C5.3,2,5.4,2,5.6,2h2.1
	c0,0,0.1,0,0.1,0c0.1,0,0.1,0,0.2,0C8,2.1,8.1,2.2,8.1,2.3v0.2H5.1z M10,3.5c0,0.2-0.1,0.4-0.4,0.4H3.3c-0.2,0-0.4-0.1-0.4-0.4
	c0-0.2,0.1-0.4,0.4-0.4h6.4C9.9,3.2,10,3.3,10,3.5z"/>
</svg>
