<?xml version="1.0" encoding="utf-8"?>
<!-- Generator: Adobe Illustrator 24.2.1, SVG Export Plug-In . SVG Version: 6.00 Build 0)  -->
<svg version="1.1" id="Layer_1" xmlns="http://www.w3.org/2000/svg" xmlns:xlink="http://www.w3.org/1999/xlink" x="0px" y="0px"
	 viewBox="0 0 279.3 230.3" style="enable-background:new 0 0 279.3 230.3;" xml:space="preserve">
<style type="text/css">
	.st0{fill:#F2F0F0;}
	.st1{fill:#CECCCC;}
	.st2{fill:#FEFEFE;}
	.st3{fill:#E0E0E0;}
	.st4{fill:#FFFFFF;}
</style>
<g>
	<rect class="st0" width="279.3" height="230.3"/>
	<rect class="st1" width="279.3" height="93.4"/>
	<rect x="25.6" y="18.6" class="st2" width="56.1" height="56.1"/>
	<rect x="36.2" y="29.3" class="st3" width="34.9" height="34.9"/>
	<rect x="90.9" y="114.6" class="st1" width="97.4" height="9.2"/>
	<rect x="108.1" y="198.4" class="st1" width="63.1" height="17"/>
	<g>
		<rect x="101.2" y="25.8" class="st4" width="65.4" height="5.4"/>
		<rect x="101.2" y="38.4" class="st4" width="124.6" height="5.4"/>
		<rect x="101.2" y="50.4" class="st4" width="124.6" height="5.4"/>
		<rect x="101.2" y="62.1" class="st4" width="124.6" height="5.4"/>
	</g>
	<rect x="36.7" y="133" class="st3" width="206" height="4.8"/>
	<rect x="36.7" y="144.2" class="st3" width="206" height="4.8"/>
	<rect x="36.7" y="155.4" class="st3" width="206" height="4.8"/>
	<rect x="36.7" y="166.6" class="st3" width="206" height="4.8"/>
	<rect x="36.7" y="177.8" class="st3" width="206" height="4.8"/>
	<polygon class="st1" points="71.1,64.1 53.9,46.4 36.2,29.3 71.1,29.3 	"/>
</g>
</svg>
