<?xml version="1.0" encoding="utf-8"?>
<!-- Generator: Adobe Illustrator 24.2.1, SVG Export Plug-In . SVG Version: 6.00 Build 0)  -->
<svg version="1.1" id="Layer_1" xmlns="http://www.w3.org/2000/svg" xmlns:xlink="http://www.w3.org/1999/xlink" x="0px" y="0px"
	 viewBox="0 0 9.5 9.5" style="enable-background:new 0 0 9.5 9.5;" xml:space="preserve">
<style type="text/css">
	.st0{fill:#3C4349;}
</style>
<g>
	<g>
		<g>
			<g>
				<path class="st0" d="M6.4,1H1.3C1.1,1,1,1.1,1,1.3v5c0,0.2,0.1,0.3,0.3,0.3h5c0.2,0,0.3-0.1,0.3-0.3v-5C6.7,1.1,6.5,1,6.4,1z
					 M6.1,6.1H1.6V1.6H6L6.1,6.1L6.1,6.1z"/>
			</g>
		</g>
		<g>
			<g>
				<path class="st0" d="M7.9,7.1v0.8H7.1v0.6h1.1c0.2,0,0.3-0.1,0.3-0.3V7.1H7.9z"/>
			</g>
		</g>
		<g>
			<g>
				<rect x="4.9" y="7.9" class="st0" width="1.6" height="0.6"/>
			</g>
		</g>
		<g>
			<g>
				<path class="st0" d="M3.4,7.9V7.1H2.8v1.1c0,0.2,0.1,0.3,0.3,0.3h1.1V7.9H3.4z"/>
			</g>
		</g>
		<g>
			<g>
				<path class="st0" d="M8.2,2.8H7.1v0.6h0.8v0.8h0.6V3.1C8.5,3,8.3,2.8,8.2,2.8z"/>
			</g>
		</g>
		<g>
			<g>
				<rect x="7.9" y="4.9" class="st0" width="0.6" height="1.6"/>
			</g>
		</g>
	</g>
</g>
</svg>
