<svg width="28" height="19" viewBox="0 0 28 19" fill="none" xmlns="http://www.w3.org/2000/svg">
<path d="M0 13.8882V12.7464C0.020297 12.6951 0.0362178 12.642 0.0475779 12.5877C0.189513 11.4437 0.662559 10.3721 1.4035 9.51627C2.14443 8.6604 3.11797 8.06098 4.19398 7.79812C4.38922 7.75074 4.45539 7.66967 4.49477 7.47387C5.45125 2.71567 9.92414 -0.589088 14.5119 0.0879624C17.4863 0.529815 19.7422 2.11683 21.2811 4.81133C21.3385 4.91181 21.4758 5.01856 21.5808 5.02427C24.593 5.18811 27.0796 7.30774 27.8042 10.3459C27.8846 10.685 27.9355 11.031 28 11.3735V12.6294C27.9793 12.6914 27.9631 12.755 27.9513 12.8195C27.5521 16.2732 24.8341 18.8958 21.5037 18.9729C19.3271 19.0231 17.1484 18.9877 14.9707 18.99C14.9272 18.9869 14.8839 18.9808 14.8411 18.9717V11.833C15.4202 12.4376 15.9649 13.0102 16.514 13.5776C16.8826 13.9584 17.372 13.9772 17.71 13.6347C18.048 13.2922 18.0381 12.7561 17.6843 12.3851C16.6635 11.3111 15.639 10.2414 14.6109 9.1762C14.2401 8.792 13.7632 8.78915 13.3968 9.16878C12.3621 10.2409 11.3312 11.3171 10.3042 12.3976C9.96351 12.7555 9.96297 13.2927 10.2823 13.6267C10.6017 13.9607 11.1054 13.9652 11.4581 13.6056C11.9602 13.0918 12.4518 12.5717 12.9489 12.0545C13.0102 11.9912 13.0763 11.9329 13.1616 11.8519V18.9746C13.1206 18.9827 13.0792 18.9882 13.0375 18.9911C10.4229 18.9883 7.80719 19.022 5.19258 18.9706C2.87274 18.9249 0.850938 17.2203 0.216016 14.8826C0.127423 14.5555 0.0710937 14.2187 0 13.8882Z" fill="#9E9E9E"/>
</svg>
