<?xml version="1.0" encoding="utf-8"?>
<!-- Generator: Adobe Illustrator 25.0.1, SVG Export Plug-In . SVG Version: 6.00 Build 0)  -->
<svg version="1.1" id="Layer_1" xmlns="http://www.w3.org/2000/svg" xmlns:xlink="http://www.w3.org/1999/xlink" x="0px" y="0px"
	 viewBox="0 0 70 70" style="enable-background:new 0 0 70 70;" xml:space="preserve">
<style type="text/css">
	.st0{fill:#BCD540;}
	.st1{fill:#FFFFFF;}
</style>
<g>
	<g>
		<path class="st0" d="M69.2,35c0,18.8-15.2,34.1-34,34.2c-0.1,0-0.1,0-0.2,0C16.1,69.2,0.8,53.9,0.8,35C0.8,16.1,16.1,0.8,35,0.8
			c0.1,0,0.1,0,0.2,0C54,0.9,69.2,16.2,69.2,35L69.2,35z"/>
	</g>
	<path class="st0" d="M69.2,35c0,18.8-15.2,34.1-34,34.2V0.8C54,0.9,69.2,16.2,69.2,35z"/>
	<path class="st1" d="M55.6,28.3L35.2,47l-5,4.5l-16-15.8l6.4-6.5l9.8,9.7l4.7-4.3l14.3-13.1L55.6,28.3z"/>
</g>
</svg>
