<?xml version="1.0" encoding="utf-8"?>
<!-- Generator: Adobe Illustrator 25.0.1, SVG Export Plug-In . SVG Version: 6.00 Build 0)  -->
<svg version="1.1" id="Layer_1" xmlns="http://www.w3.org/2000/svg" xmlns:xlink="http://www.w3.org/1999/xlink" x="0px" y="0px"
	 viewBox="0 0 26 26" style="enable-background:new 0 0 26 26;" xml:space="preserve">
<style type="text/css">
	.st0{fill:#075C7D;}
</style>
<path class="st0" d="M17.5,12.5c0.7-2.3,1.1-4.5,1.2-6.5c0.1-1.6-0.7-2.5-2.2-2.5c-1.8-0.1-3,1-3.6,3.1c0.3-0.1,0.6-0.2,1-0.2
	c0.3,0,0.5,0.1,0.7,0.3c0.2,0.2,0.3,0.5,0.2,0.8c0,0.8-0.4,1.6-1.2,2.5c-0.8,0.9-1.4,1.3-2,1.3c-0.4,0-0.6-0.4-0.6-1.1
	c0-0.4,0.1-1.1,0.4-2.3c0.2-1.1,0.3-1.8,0.3-2.2c0-0.6-0.2-1.2-0.5-1.6c-0.3-0.4-0.8-0.6-1.4-0.5c-0.4,0-1.1,0.4-1.9,1.2L6,6.5
	l0.7,0.8c0.5-0.4,0.9-0.6,1-0.6c0.4,0,0.5,0.3,0.5,0.8c0,0-0.2,0.7-0.5,1.8c-0.4,1.2-0.5,2.1-0.6,2.7c0,0.8,0.1,1.4,0.4,1.8
	c0.4,0.5,1.1,0.8,2.1,0.7c1.1-0.1,2.3-0.5,3.4-1.3c0.5-0.3,0.9-0.7,1.4-1.1c-0.2,0.8-0.3,1.4-0.6,2c-2.1,1-3.6,1.8-4.6,2.5
	c-1.3,1-2,2-2.1,3.1C7,21.6,7.9,22.5,10,22.5c1.4,0,2.8-0.9,4.1-2.6c1.1-1.5,2.1-3.4,2.9-5.9c1.1-0.6,2.1-1.1,3-1.6v-1.3
	C19.3,11.6,18.4,12,17.5,12.5z M10.8,18.4C10.8,18.4,10.8,18.4,10.8,18.4L10.8,18.4C10.8,18.4,10.8,18.4,10.8,18.4
	c-0.3,0-0.5-0.1-0.4-0.4c0-0.5,0.9-1.2,2.6-2C12.1,17.6,11.4,18.4,10.8,18.4z"/>
</svg>
