<?xml version="1.0" encoding="utf-8"?>
<!-- Generator: Adobe Illustrator 24.2.1, SVG Export Plug-In . SVG Version: 6.00 Build 0)  -->
<svg version="1.1" id="Layer_1" xmlns="http://www.w3.org/2000/svg" xmlns:xlink="http://www.w3.org/1999/xlink" x="0px" y="0px"
	 viewBox="0 0 30 30" style="enable-background:new 0 0 30 30;" xml:space="preserve">
<style type="text/css">
	.st0{fill:#F3F4F2;}
	.st1{fill:#57A0D7;}
	.st2{fill:#333333;}
	.st3{fill:#4394C6;}
	.st4{fill:#D5DBE1;}
	.st5{fill:#FFFFFF;}
	.st6{fill:none;stroke:#000000;stroke-width:1.8;stroke-linecap:round;stroke-linejoin:round;}
</style>
<g>
	<path class="st2" d="M26.2,14.3c0.6,0,1.2,0,1.9,0c0.1,0,0.3,0,0.4,0c0.4,0.1,0.7,0.4,0.7,0.7c0,0.5-0.3,0.7-0.7,0.7
		c-0.6,0-1.2,0-1.8,0c-0.1,0-0.2,0-0.4,0c0,0.3,0,0.5,0,0.7c0.2,1.3-0.3,2.3-1.3,3.2c-1.1,0.9-2.1,2-3.1,3.1
		C21.6,22.9,21.3,23,21,23c-6,0-12,0-18,0c-1.3,0-2.1-0.8-2.1-2.2c-0.1-1.9,0-3.8,0-5.6c0-2,0-3.9,0-5.9c0-0.6,0.1-1.2,0.5-1.6
		C1.9,7.2,2.6,7,3.3,7c2.1,0,4.1,0,6.2,0c3.8,0,7.6,0,11.4,0c0.4,0,0.7,0.1,0.9,0.4c1.4,1.4,2.7,2.7,4.1,4.1
		c0.2,0.2,0.4,0.5,0.4,0.9C26.2,12.9,26.2,13.6,26.2,14.3z M24.7,15.7c-0.4,0-0.9,0-1.3,0c-0.2,0-0.4,0.1-0.5,0.3
		c-0.5,1-1.8,1.5-2.8,1c-0.9-0.4-1.6-1.4-1.2-2.7c0.3-0.9,1-1.4,1.9-1.5c0.9-0.1,1.6,0.3,2.1,1.1c0.1,0.1,0.2,0.3,0.3,0.3
		c0.5,0,0.9,0,1.4,0c0-0.5,0-1.1,0-1.6c0-0.2-0.1-0.4-0.2-0.5C23.3,11,22.2,9.8,21,8.7c-0.2-0.2-0.3-0.2-0.6-0.2
		c-4.9,0-9.8,0-14.7,0c-0.1,0-0.2,0-0.4,0c0,4.4,0,8.7,0,13.1c0,0,0.1,0,0.1,0c5,0,10.1,0,15.1,0c0.1,0,0.2-0.1,0.3-0.1
		c1.2-1.2,2.5-2.4,3.7-3.7c0.1-0.1,0.1-0.2,0.1-0.3C24.7,16.9,24.7,16.3,24.7,15.7z M3.8,21.5c0-4.4,0-8.7,0-13.1
		c-0.3,0-0.5,0-0.7,0c-0.5,0-0.7,0.3-0.7,0.8c0,2.6,0,5.2-0.1,7.9c0,1.1,0,2.1,0,3.2c0,1.2,0.3,1.4,1.4,1.3
		C3.8,21.6,3.8,21.6,3.8,21.5z M21.1,15.7c0.4,0,0.7-0.4,0.7-0.8c0-0.3-0.4-0.6-0.7-0.6c-0.4,0-0.7,0.4-0.8,0.8
		C20.3,15.4,20.7,15.7,21.1,15.7z"/>
	<path class="st5" d="M24.7,15.7c0,0.6,0,1.2,0,1.8c0,0.1-0.1,0.2-0.1,0.3c-1.2,1.2-2.4,2.5-3.7,3.7c-0.1,0.1-0.2,0.1-0.3,0.1
		c-5,0-10.1,0-15.1,0c0,0-0.1,0-0.1,0c0-4.4,0-8.7,0-13.1c0.1,0,0.3,0,0.4,0c4.9,0,9.8,0,14.7,0c0.2,0,0.4,0.1,0.6,0.2
		c1.2,1.2,2.3,2.3,3.5,3.5c0.2,0.2,0.2,0.3,0.2,0.5c0,0.5,0,1,0,1.6c-0.5,0-1,0-1.4,0c-0.1,0-0.2-0.2-0.3-0.3
		c-0.5-0.8-1.2-1.2-2.1-1.1c-0.9,0.1-1.6,0.6-1.9,1.5c-0.5,1.3,0.3,2.3,1.2,2.7c1.1,0.5,2.3,0,2.8-1c0.1-0.2,0.2-0.3,0.5-0.3
		C23.9,15.7,24.3,15.7,24.7,15.7z M11.2,13.3c0-0.4-0.2-1-0.8-1.3c-0.6-0.3-0.8-0.7-0.7-1.4c0-0.4-0.4-0.7-0.8-0.6
		c-0.4,0-0.6,0.3-0.7,0.7c0,0.2,0,0.4,0,0.6c0,0.2,0,0.3-0.2,0.3c-1,0.5-1.5,1.4-1.2,2.4c0.2,1,1.1,1.7,2.1,1.7
		c0.4,0,0.7,0.2,0.7,0.6c0.1,0.4-0.2,0.8-0.6,0.9c-0.5,0.1-0.8-0.2-0.9-0.7c-0.1-0.4-0.4-0.7-0.8-0.7c-0.4,0-0.7,0.4-0.7,0.8
		c0,0.6,0.3,1.1,0.7,1.6c0.6,0.5,0.6,0.5,0.7,1.3c0.1,0.4,0.4,0.7,0.7,0.7c0.4,0,0.7-0.3,0.7-0.7c0-0.2,0-0.3,0-0.5
		c0-0.2,0-0.4,0.3-0.5c1-0.5,1.5-1.7,1-2.7c-0.4-0.9-1.1-1.3-2-1.4c-0.5,0-0.7-0.3-0.7-0.8c0-0.4,0.3-0.7,0.7-0.7
		c0.4,0,0.7,0.3,0.7,0.7c0.1,0.5,0.3,0.8,0.8,0.7C10.9,14.3,11.2,14,11.2,13.3z M15,17.2c0.5,0,1.1,0,1.6,0c0.4,0,0.8-0.3,0.8-0.7
		c0-0.4-0.3-0.7-0.7-0.7c-1.1,0-2.2,0-3.3,0c-0.4,0-0.7,0.4-0.7,0.8c0,0.4,0.3,0.7,0.7,0.7C13.9,17.2,14.4,17.2,15,17.2z M15,14.3
		c0.6,0,1.1,0,1.7,0c0.4,0,0.7-0.3,0.7-0.7c0-0.4-0.3-0.7-0.7-0.8c-1.1,0-2.2,0-3.3,0c-0.4,0-0.7,0.4-0.7,0.8c0,0.4,0.3,0.7,0.7,0.7
		C13.9,14.3,14.5,14.3,15,14.3z"/>
	<path class="st1" d="M3.8,21.5c-0.1,0-0.1,0-0.1,0c-1.1,0.1-1.4-0.1-1.4-1.3c0-1.1,0-2.1,0-3.2c0-2.6,0-5.2,0.1-7.9
		c0-0.5,0.2-0.7,0.7-0.8c0.2,0,0.5,0,0.7,0C3.8,12.8,3.8,17.2,3.8,21.5z"/>
	<path class="st5" d="M21.1,15.7c-0.4,0-0.8-0.3-0.7-0.7c0-0.4,0.4-0.7,0.8-0.8c0.3,0,0.7,0.3,0.7,0.6
		C21.8,15.4,21.5,15.7,21.1,15.7z"/>
	<path class="st2" d="M11.2,13.3c0,0.7-0.2,1-0.6,1c-0.5,0-0.7-0.2-0.8-0.7c0-0.4-0.4-0.7-0.7-0.7c-0.4,0-0.7,0.3-0.7,0.7
		c0,0.4,0.2,0.7,0.7,0.8c0.9,0.1,1.7,0.5,2,1.4c0.4,1,0,2.2-1,2.7c-0.2,0.1-0.3,0.2-0.3,0.5c0,0.2,0,0.3,0,0.5
		c0,0.4-0.3,0.7-0.7,0.7c-0.4,0-0.7-0.3-0.7-0.7c-0.1-0.8-0.1-0.8-0.7-1.3c-0.5-0.4-0.7-0.9-0.7-1.6c0-0.4,0.3-0.8,0.7-0.8
		c0.4,0,0.7,0.3,0.8,0.7c0.1,0.5,0.4,0.8,0.9,0.7c0.4-0.1,0.6-0.4,0.6-0.9c-0.1-0.3-0.3-0.6-0.7-0.6c-1,0-1.9-0.7-2.1-1.7
		c-0.2-1,0.3-2,1.2-2.4c0.2-0.1,0.2-0.2,0.2-0.3c0-0.2,0-0.4,0-0.6c0-0.4,0.3-0.7,0.7-0.7c0.4,0,0.8,0.3,0.8,0.6
		c-0.1,0.6,0.1,1,0.7,1.4C10.9,12.2,11.1,12.8,11.2,13.3z"/>
	<path class="st2" d="M15,17.2c-0.5,0-1.1,0-1.6,0c-0.4,0-0.7-0.3-0.7-0.7c0-0.4,0.3-0.7,0.7-0.8c1.1,0,2.2,0,3.3,0
		c0.4,0,0.8,0.4,0.7,0.7c0,0.4-0.3,0.7-0.8,0.7C16.1,17.2,15.5,17.2,15,17.2z"/>
	<path class="st2" d="M15,14.3c-0.6,0-1.1,0-1.7,0c-0.4,0-0.7-0.3-0.7-0.7c0-0.4,0.3-0.8,0.7-0.8c1.1,0,2.2,0,3.3,0
		c0.4,0,0.7,0.3,0.7,0.8c0,0.4-0.3,0.7-0.7,0.7C16.1,14.3,15.6,14.3,15,14.3z"/>
	<circle class="st2" cx="21" cy="15" r="2.2"/>
	<circle class="st1" cx="21" cy="15" r="1.2"/>
</g>
</svg>
