<?xml version="1.0" encoding="utf-8"?>
<!-- Generator: Adobe Illustrator 24.2.1, SVG Export Plug-In . SVG Version: 6.00 Build 0)  -->
<svg version="1.1" id="Layer_1" xmlns="http://www.w3.org/2000/svg" xmlns:xlink="http://www.w3.org/1999/xlink" x="0px" y="0px"
	 viewBox="0 0 30 30" style="enable-background:new 0 0 30 30;" xml:space="preserve">
<style type="text/css">
	.st0{fill:#F3F4F2;}
	.st1{fill:#57A0D7;}
	.st2{fill:#333333;}
	.st3{fill:#4394C6;}
	.st4{fill:#D5DBE1;}
	.st5{fill:#FFFFFF;}
	.st6{fill:none;stroke:#000000;stroke-width:1.8;stroke-linecap:round;stroke-linejoin:round;}
</style>
<g>
	<path class="st5" d="M20.4,13c0.1-0.2,0.4-0.8,1.2-0.8c0,0,0,0,0,0c0.8,0,1.1,0.6,1.2,0.9c0.1,0.2,0.2,0.5,0.3,0.7l1.7,3.5
		c1.3-1,2-2.4,2.1-4.1c0-1.5-0.5-2.9-1.5-3.9c-1-1-2.4-1.6-3.9-1.6c-4.9,0-9.2,0-13.1,0c-1.7,0-3.2,0.7-4.2,2c-1,1.3-1.4,2.9-1,4.6
		c0.5,2.4,2.7,4.1,5.3,4.1c1.6,0,3.3,0,4.9,0c0.4,0,0.8,0,1.2,0c1.1,0,2.1,0,3.2,0L20.4,13z"/>
	<g>
		<path class="st2" d="M28.5,12.4l-0.1-0.3c0-0.2-0.1-0.5-0.1-0.7c-0.8-3.2-3.5-5.3-6.8-5.3c-3.4,0-6.8,0-10.3,0l-2.6,0
			c-0.3,0-0.5,0-0.8,0C5.8,6.3,4,7.3,2.8,9c-1.2,1.7-1.6,3.8-1,5.8C2.5,17.9,5.3,20,8.5,20c2,0,4,0,6,0l2.5,0l-0.2,0.4
			c-0.4,0.7-0.7,1.5-1.1,2.2c-0.3,0.7-0.1,1.1,0.1,1.4c0.3,0.4,0.8,0.5,1.4,0.4c0.5-0.1,0.9-0.2,1.4-0.3L19,24l0,0.9
			c0,0.8,0,1.6,0,2.3c0,0.8,0.3,1.2,0.9,1.5l3.3,0l0.1,0c0.6-0.3,0.9-0.8,0.9-1.5c0-0.8,0-1.6,0-2.3l0-0.9l1.9,0.4
			c0.7,0.2,1.1-0.1,1.3-0.4c0.2-0.3,0.4-0.8,0.1-1.4c-0.5-1-1-1.9-1.4-2.9l-0.5-1l0,0c0.2-0.1,0.4-0.3,0.5-0.4
			c1.4-1.2,2.2-2.7,2.4-4.5c0,0,0-0.1,0-0.1l0-0.1L28.5,12.4z M23.1,13.8c-0.1-0.2-0.2-0.5-0.3-0.7c-0.1-0.2-0.4-0.8-1.2-0.9
			c0,0,0,0,0,0c-0.8,0-1.1,0.6-1.2,0.8l-2.6,5.3c-1.1,0-2.1,0-3.2,0c-0.4,0-0.8,0-1.2,0c-1.6,0-3.3,0-4.9,0c-2.6,0-4.7-1.7-5.3-4.1
			c-0.4-1.6,0-3.3,1-4.6c1-1.3,2.6-2,4.2-2c4,0,8.3,0,13.1,0c1.5,0,2.9,0.6,3.9,1.6c1,1,1.5,2.4,1.5,3.9c-0.1,1.7-0.8,3-2.1,4.1
			L23.1,13.8z M22.6,23.6c0,0.9,0,1.7,0,2.6l0,1h-1.9l0-1.1l0-2.3c0-0.6-0.2-1-0.5-1.1s-0.6-0.3-1.2-0.2l-1.5,0.4l4.2-8.5l4.2,8.5
			L25,22.6c-0.3-0.1-0.6-0.1-0.9-0.2c-0.4-0.1-0.8,0-1.1,0.2C22.7,22.9,22.6,23.2,22.6,23.6z"/>
		<path class="st2" d="M17.4,5.5C17.4,5.5,17.4,5.5,17.4,5.5c0.2,0,0.4-0.1,0.6-0.3c0.6-0.6,1.1-1.1,1.7-1.7
			c0.1-0.1,0.2-0.2,0.2-0.3c0,0,0-0.1,0.1-0.1l0.1-0.2L20,2.6c0,0-0.1-0.1-0.1-0.1c-0.1-0.1-0.2-0.2-0.3-0.3
			c-0.3-0.2-0.7-0.1-0.9,0.2l-0.5,0.5c-0.4,0.4-0.8,0.8-1.2,1.3c-0.3,0.3-0.4,0.8,0,1.1C17,5.4,17.2,5.5,17.4,5.5z"/>
		<path class="st2" d="M10.3,3.7l1.4,1.4c0.2,0.2,0.4,0.3,0.6,0.3c0.1,0,0.2,0,0.3-0.1c0.1-0.1,0.2-0.2,0.3-0.3l0.3-0.3L13,4.3
			c0-0.1-0.1-0.2-0.2-0.3c-0.6-0.6-1.1-1.2-1.7-1.7C10.7,2,10.3,2,9.9,2.3c-0.3,0.3-0.3,0.8,0,1.1C10,3.5,10.1,3.6,10.3,3.7z"/>
		<path class="st2" d="M15,5C15,5,15,5,15,5c0.5,0,0.8-0.4,0.8-0.9c0-0.2,0-0.5,0-0.7l0-0.3l0-0.3c0-0.2,0-0.5,0-0.7
			c0-0.5-0.3-0.9-0.8-0.9c0,0,0,0,0,0c-0.5,0-0.8,0.3-0.8,0.9c0,0.7,0,1.4,0,2C14.2,4.7,14.5,5,15,5z"/>
	</g>
	<path class="st1" d="M25.8,22.8l-4.2-8.5l-4.2,8.5l1.5-0.4c0.6-0.1,1,0,1.2,0.2s0.5,0.5,0.5,1.1l0,2.3l0,1.1h1.9l0-1
		c0-0.9,0-1.7,0-2.6c0-0.4,0.2-0.8,0.5-1c0.3-0.2,0.7-0.3,1.1-0.2c0.3,0.1,0.6,0.1,0.9,0.2L25.8,22.8z"/>
</g>
</svg>
