<?xml version="1.0" encoding="utf-8"?>
<!-- Generator: Adobe Illustrator 24.2.1, SVG Export Plug-In . SVG Version: 6.00 Build 0)  -->
<svg version="1.1" id="Layer_1" xmlns="http://www.w3.org/2000/svg" xmlns:xlink="http://www.w3.org/1999/xlink" x="0px" y="0px"
	 viewBox="0 0 30 30" style="enable-background:new 0 0 30 30;" xml:space="preserve">
<style type="text/css">
	.st0{fill:#F3F4F2;}
	.st1{fill:#57A0D7;}
	.st2{fill:#333333;}
	.st3{fill:#4394C6;}
	.st4{fill:#D5DBE1;}
	.st5{fill:#FFFFFF;}
	.st6{fill:none;stroke:#000000;stroke-width:1.8;stroke-linecap:round;stroke-linejoin:round;}
</style>
<polygon class="st5" points="10.2,3.4 19.8,3.4 26.6,10.2 26.6,19.8 19.8,26.6 10.2,26.6 3.4,19.8 3.4,10.2 "/>
<g>
	<path class="st2" d="M19.8,27.5h-9.6c-0.2,0-0.5-0.1-0.6-0.3l-6.8-6.8c-0.2-0.2-0.3-0.4-0.3-0.6v-9.6c0-0.2,0.1-0.5,0.3-0.6
		l6.8-6.8c0.2-0.2,0.4-0.3,0.6-0.3h9.6c0.2,0,0.5,0.1,0.6,0.3l6.8,6.8c0.2,0.2,0.3,0.4,0.3,0.6v9.6c0,0.2-0.1,0.5-0.3,0.6l-6.8,6.8
		C20.3,27.4,20,27.5,19.8,27.5z M10.6,25.7h8.9l6.3-6.3v-8.9l-6.3-6.3h-8.9l-6.3,6.3v8.9L10.6,25.7z"/>
</g>
<g>
	<path class="st2" d="M15,17.1c1.3,0,2.4,1.1,2.4,2.4c0,1.3-1.1,2.4-2.4,2.4c-1.3,0-2.4-1.1-2.4-2.4C12.6,18.2,13.7,17.1,15,17.1z
		 M15,18.3c-0.6,0-1.2,0.5-1.2,1.1c0,0.7,0.5,1.2,1.2,1.2c0.6,0,1.2-0.5,1.2-1.2C16.2,18.8,15.7,18.3,15,18.3z"/>
	<path class="st1" d="M15,18.3c-0.6,0-1.2,0.5-1.2,1.1c0,0.7,0.5,1.2,1.2,1.2c0.6,0,1.2-0.5,1.2-1.2C16.2,18.8,15.7,18.3,15,18.3z"
		/>
</g>
<path class="st2" d="M14.9,15.6L14.9,15.6c-0.7,0-1.2-0.6-1.3-1.3L13,9.6c-0.1-1,0.5-1.8,1.3-1.8h1.2c0.8,0,1.4,0.9,1.3,1.8
	l-0.6,4.7C16.2,15.1,15.6,15.6,14.9,15.6z"/>
</svg>
