<?xml version="1.0" encoding="utf-8"?>
<!-- Generator: Adobe Illustrator 24.2.1, SVG Export Plug-In . SVG Version: 6.00 Build 0)  -->
<svg version="1.1" id="Layer_1" xmlns="http://www.w3.org/2000/svg" xmlns:xlink="http://www.w3.org/1999/xlink" x="0px" y="0px"
	 viewBox="0 0 30 30" style="enable-background:new 0 0 30 30;" xml:space="preserve">
<style type="text/css">
	.st0{fill:#57A0D7;}
	.st1{fill:#F3F4F2;}
	.st2{fill:#4394C6;}
	.st3{fill:#D5DBE1;}
	.st4{fill:#333333;}
</style>
<g>
	<g>
		<path class="st0" d="M3.3,27.5h23.3c0.6,0,1.1-0.5,1.1-1.1v-6.8c0-0.6-0.5-1.1-1.1-1.1H3.3c-0.6,0-1.1,0.5-1.1,1.1v6.7
			C2.2,27,2.7,27.5,3.3,27.5z"/>
	</g>
	<g>
		<path class="st1" d="M3.3,15.1h23.3c0.6,0,1.1-0.7,1.1-1.5V4c0-0.8-0.5-1.5-1.1-1.5H3.3C2.7,2.5,2.2,3.2,2.2,4v9.4
			C2.2,14.4,2.7,15.1,3.3,15.1z"/>
	</g>
	<g>
		<path class="st2" d="M4.8,26.4v-6.8c0-0.6,0.5-1.1,1.1-1.1H3.3c-0.6,0-1.1,0.5-1.1,1.1v6.7c0,0.6,0.5,1.1,1.1,1.1h2.6
			C5.3,27.5,4.8,27,4.8,26.4z"/>
	</g>
	<g>
		<path class="st3" d="M4.8,13.8V4c0-0.9,0.5-1.6,1.1-1.6H3.3C2.7,2.4,2.2,3.1,2.2,4v9.7c0,0.9,0.5,1.6,1.1,1.6h2.6
			C5.3,15.3,4.8,14.6,4.8,13.8z"/>
	</g>
	<g>
		<rect x="7" y="20.9" class="st4" width="16" height="1.5"/>
	</g>
	<g>
		<rect x="7" y="23.8" class="st4" width="16" height="1.5"/>
	</g>
	<g>
		<path class="st4" d="M26.7,28.4H3.3c-1.1,0-2-0.9-2-2v-6.8c0-1.1,0.9-2,2-2h23.3c1.1,0,2,0.9,2,2v6.7
			C28.7,27.5,27.8,28.4,26.7,28.4z M3.3,19.4c-0.2,0-0.3,0.1-0.3,0.3v6.7c0,0.1,0.2,0.3,0.3,0.3h23.3c0.2,0,0.3-0.1,0.3-0.3v-6.8
			c0-0.2-0.1-0.3-0.3-0.3H3.3V19.4z"/>
	</g>
	<g>
		<path class="st4" d="M26.7,16.2H3.3c-1.1,0-2-0.9-2-2V3.6c0-1.1,0.9-2,2-2h23.3c1.1,0,2,0.9,2,2v10.5
			C28.7,15.3,27.8,16.2,26.7,16.2z M3.3,3.3C3.2,3.3,3,3.5,3,3.6v10.5c0,0.2,0.1,0.3,0.3,0.3h23.3c0.2,0,0.3-0.1,0.3-0.3V3.6
			c0.1-0.1-0.1-0.3-0.2-0.3H3.3z"/>
	</g>
	<g>
		<g>
			<g>
				<path class="st0" d="M8.3,12.3h10.5c0.4,0,0.7-0.3,0.7-0.7c0-0.2-0.1-0.3-0.2-0.5l-2.6-2.6c-0.3-0.3-0.7-0.3-0.9,0l-0.9,0.9
					l-2.2-2.2c-0.3-0.3-0.7-0.3-0.9,0l-4,3.9c-0.3,0.3-0.3,0.7,0,0.9C8,12.3,8.1,12.3,8.3,12.3z"/>
			</g>
		</g>
		<g>
			<g>
				<path class="st4" d="M18.8,12.6H8.3c-0.2,0-0.4-0.1-0.6-0.2l0,0c-0.2-0.2-0.3-0.4-0.3-0.7c0-0.3,0.1-0.5,0.3-0.7l4-3.9
					c0.1-0.2,0.4-0.3,0.6-0.3c0.3,0,0.5,0.1,0.7,0.3l2,2l0.7-0.7c0.1-0.2,0.4-0.3,0.6-0.3c0.3,0,0.5,0.1,0.7,0.3l2.6,2.6
					c0.2,0.2,0.3,0.4,0.3,0.7C19.8,12.2,19.4,12.6,18.8,12.6z M8.1,11.9C8.1,12,8.2,12,8.3,12h10.5c0.2,0,0.4-0.2,0.4-0.4
					c0-0.1,0-0.2-0.1-0.2l0,0l-2.6-2.6c-0.1-0.1-0.2-0.1-0.3-0.1c-0.1,0-0.2,0-0.2,0.1l-1.1,1.1l-2.4-2.4c-0.1-0.1-0.2-0.1-0.3-0.1
					c-0.1,0-0.2,0-0.2,0.1l-4,3.9C8,11.5,8,11.6,8,11.7C8,11.8,8,11.9,8.1,11.9z"/>
			</g>
			<g>
				<path class="st4" d="M16.9,7.4c-0.9,0-1.6-0.7-1.6-1.6s0.7-1.6,1.6-1.6c0.9,0,1.6,0.7,1.6,1.6S17.7,7.4,16.9,7.4z M16.9,4.7
					c-0.6,0-1,0.5-1,1s0.5,1,1,1s1-0.5,1-1S17.4,4.7,16.9,4.7z"/>
			</g>
		</g>
	</g>
</g>
</svg>
