<?xml version="1.0" encoding="utf-8"?>
<!-- Generator: Adobe Illustrator 24.2.1, SVG Export Plug-In . SVG Version: 6.00 Build 0)  -->
<svg version="1.1" id="Layer_1" xmlns="http://www.w3.org/2000/svg" xmlns:xlink="http://www.w3.org/1999/xlink" x="0px" y="0px"
	 viewBox="0 0 30 30" style="enable-background:new 0 0 30 30;" xml:space="preserve">
<style type="text/css">
	.st0{fill:#F3F4F2;}
	.st1{fill:#57A0D7;}
	.st2{fill:#333333;}
	.st3{fill:#4394C6;}
	.st4{fill:#D5DBE1;}
	.st5{fill:#FFFFFF;}
</style>
<g>
	<g>
		<path class="st0" d="M3.3,24.3h23.3c0.6,0,1.1-0.7,1.1-1.5V7.1c0-0.8-0.5-1.5-1.1-1.5H3.3c-0.6,0-1.1,0.7-1.1,1.5v15.6
			C2.2,23.6,2.7,24.3,3.3,24.3z"/>
	</g>
	<g>
		<path class="st4" d="M4.8,23V7c0-0.9,0.5-1.6,1.1-1.6H3.3C2.7,5.4,2.2,6.1,2.2,7v15.8c0,0.9,0.5,1.6,1.1,1.6h2.6
			C5.3,24.6,4.8,23.8,4.8,23z"/>
	</g>
	<g>
		<g>
			<rect x="12.9" y="8.6" class="st2" width="11.7" height="1.5"/>
		</g>
		<g>
			<rect x="12.9" y="11.5" class="st2" width="11.7" height="1.5"/>
		</g>
		<g>
			<rect x="12.9" y="16.8" class="st2" width="11.7" height="1.5"/>
		</g>
		<g>
			<rect x="12.9" y="19.7" class="st2" width="11.7" height="1.5"/>
		</g>
	</g>
	<g>
		<path class="st2" d="M26.7,25.4H3.3c-1.1,0-2-0.9-2-2V6.6c0-1.1,0.9-2,2-2h23.3c1.1,0,2,0.9,2,2v16.7
			C28.7,24.5,27.8,25.4,26.7,25.4z M3.3,6.3C3.2,6.3,3,6.5,3,6.6v16.7c0,0.2,0.1,0.3,0.3,0.3h23.3c0.2,0,0.3-0.1,0.3-0.3V6.6
			c0.1-0.1-0.1-0.3-0.2-0.3H3.3z"/>
	</g>
	<g>
		<path class="st2" d="M8.8,8.4c1.1,0,2.1,0.9,2.1,2.1c0,1.1-0.9,2.1-2.1,2.1c-1.1,0-2.1-0.9-2.1-2.1C6.7,9.3,7.7,8.4,8.8,8.4z
			 M8.8,9.4c-0.6,0-1,0.4-1,1c0,0.6,0.4,1,1,1.1c0.6,0,1-0.5,1-1C9.9,9.9,9.4,9.4,8.8,9.4z"/>
		<path class="st1" d="M8.8,9.4c-0.6,0-1,0.4-1,1c0,0.6,0.4,1,1,1.1c0.6,0,1-0.5,1-1C9.9,9.9,9.4,9.4,8.8,9.4z"/>
	</g>
	<g>
		<path class="st2" d="M8.8,16.5c1.1,0,2.1,0.9,2.1,2.1c0,1.1-0.9,2.1-2.1,2.1c-1.1,0-2.1-0.9-2.1-2.1C6.7,17.5,7.7,16.5,8.8,16.5z
			 M8.8,17.6c-0.6,0-1,0.4-1,1c0,0.6,0.4,1,1,1.1c0.6,0,1-0.5,1-1C9.9,18.1,9.4,17.6,8.8,17.6z"/>
		<path class="st1" d="M8.8,17.6c-0.6,0-1,0.4-1,1c0,0.6,0.4,1,1,1.1c0.6,0,1-0.5,1-1C9.9,18.1,9.4,17.6,8.8,17.6z"/>
	</g>
</g>
</svg>
