<?xml version="1.0" encoding="utf-8"?>
<!-- Generator: Adobe Illustrator 25.0.1, SVG Export Plug-In . SVG Version: 6.00 Build 0)  -->
<svg version="1.1" id="Layer_1" xmlns="http://www.w3.org/2000/svg" xmlns:xlink="http://www.w3.org/1999/xlink" x="0px" y="0px"
	 viewBox="0 0 60 60" style="enable-background:new 0 0 60 60;" xml:space="preserve">
<style type="text/css">
	.st0{fill:none;}
	.st1{fill:#333333;}
	.st2{fill:#57A0D7;}
</style>
<g>
	<path class="st0" d="M39,15.7c-0.6,0-1.2-0.5-1.2-1.2v-12H10.7v19h38.6v-5.9H39z"/>
	<rect x="10.7" y="45.6" class="st0" width="38.6" height="11.3"/>
	<path class="st1" d="M49.3,56.8L49.3,56.8L49.3,56.8H10.7V45.6H8.4v11.9c0,1.3,1,2.3,2.3,2.3h38.6c1.3,0,2.3-1,2.3-2.3V45.6h-2.3
		V56.8z"/>
	<path class="st1" d="M10.7,2.5h27.1v12c0,0.6,0.5,1.2,1.2,1.2h10.3v5.9h2.3v-6.9c0,0,0-0.1,0-0.1c0-0.3-0.1-0.5-0.3-0.8L39.8,0.6
		c0,0,0,0,0,0c-0.1-0.1-0.1-0.1-0.2-0.2c0,0-0.1,0-0.1,0c-0.1,0-0.2-0.1-0.2-0.1c0,0,0,0-0.1,0c-0.1,0-0.2,0-0.3,0H10.7
		c-1.3,0-2.3,1-2.3,2.3v19h2.3V2.5z"/>
	<rect x="51.6" y="21.5" class="st1" width="1.4" height="0"/>
	<rect x="10.7" y="21.5" class="st1" width="38.6" height="0"/>
	<g>
		<path class="st2" d="M53.1,21.5L53.1,21.5h-1.4v0h-2.3v0H10.7v0H8.4H6.9c-1.8,0-3.3,1.5-3.3,3.3v17.4c0,1.8,1.5,3.3,3.3,3.3h1.4
			h2.3h38.6h2.3h1.4c1.8,0,3.3-1.5,3.3-3.3V24.9C56.4,23,54.9,21.5,53.1,21.5z M28.9,42H15.3v-2.1l8.3-12v-0.1h-7.5v-3.3h12.7v2.3
			l-8.1,11.8v0.1h8.3V42z M35.3,42h-4V24.5h4V42z M49.7,34c-1.3,1.3-3.3,1.8-5.7,1.8c-0.5,0-1,0-1.3-0.1V42h-3.9V24.7
			c1.2-0.2,2.9-0.4,5.3-0.4c2.4,0,4.2,0.5,5.3,1.4c1.1,0.9,1.9,2.3,1.9,4C51.3,31.5,50.7,33,49.7,34z"/>
		<path class="st2" d="M44.3,27.4c-0.8,0-1.3,0.1-1.6,0.2v5.2c0.3,0.1,0.8,0.1,1.3,0.1c2.1,0,3.4-1.1,3.4-2.9
			C47.4,28.3,46.3,27.4,44.3,27.4z"/>
	</g>
</g>
</svg>
